# xmcd CD database file
#
# Track frame offsets:
#	150
#	39215
#	65972
#	88609
#	105706
#	144826
#	168478
#	213087
#	234484
#	255213
#
# Disc length: 4019 seconds
#
# Revision: 0
# Processed by: cddbd v1.5.2PL0 Copyright (c) Steve Scherf et al.
# Submitted via: jetAudio 7
#
DISCID=7c0fb10a
DTITLE=Prismojeni Profesorji Bluesa - Krizanke Live CD1
DYEAR=1900
DGENRE=Blues
TTITLE0=Rock Me Baby Jam
TTITLE1=I Need Love
TTITLE2=Run Hilda
TTITLE3=L.A.
TTITLE4=Death Proof
TTITLE5=Red Beans and Rice
TTITLE6=Earth vs Space (Part 1)
TTITLE7=Deep Cuts
TTITLE8=Kitchen Girl
TTITLE9=Keep on Groovin'
EXTD=
EXTT0=
EXTT1=
EXTT2=
EXTT3=
EXTT4=
EXTT5=
EXTT6=
EXTT7=
EXTT8=
EXTT9=
PLAYORDER=
